<?xml version="1.0" encoding="UTF-8"?><svg id="Capa_2" xmlns="http://www.w3.org/2000/svg" xmlns:xlink="http://www.w3.org/1999/xlink" viewBox="0 0 220.78 55.22"><defs><style>.cls-1{fill:#217b3c;}.cls-2{fill:#1b1514;}.cls-3{clip-path:url(#clippath-2);}.cls-4{fill:#9ac32e;}.cls-5{clip-path:url(#clippath-1);}.cls-6{stroke:#69b538;stroke-miterlimit:10;stroke-width:.25px;}.cls-6,.cls-7{fill:none;}.cls-8{fill:#7daa34;}.cls-9{fill:#2d5832;}.cls-10{clip-path:url(#clippath);}.cls-11{clip-path:url(#clippath-3);}.cls-12{fill:#abc92c;}.cls-13{fill:#69b538;}.cls-14{fill:#40923c;}.cls-15{fill:#2a2424;}</style><clipPath id="clippath"><path class="cls-7" d="M6.65,30.31c0-10.07,8.19-18.26,18.26-18.26s18.26,8.19,18.26,18.26-8.19,18.26-18.26,18.26S6.65,40.37,6.65,30.31M0,30.31C0,44.04,11.17,55.22,24.91,55.22s24.91-11.18,24.91-24.91S38.65,5.4,24.91,5.4,0,16.57,0,30.31"/></clipPath><clipPath id="clippath-1"><path class="cls-7" d="M6.65,30.31c0-10.07,8.19-18.26,18.26-18.26s18.26,8.19,18.26,18.26-8.19,18.26-18.26,18.26S6.65,40.37,6.65,30.31M0,30.31C0,44.04,11.17,55.22,24.91,55.22s24.91-11.18,24.91-24.91S38.65,5.4,24.91,5.4,0,16.57,0,30.31"/></clipPath><clipPath id="clippath-2"><rect class="cls-7" x="20.87" y="25.82" width="22.89" height="22.89"/></clipPath><clipPath id="clippath-3"><path class="cls-7" d="M8.74,30.23c0,9.08,7.36,16.45,16.45,16.45s16.45-7.36,16.45-16.45-7.36-16.45-16.45-16.45S8.74,21.15,8.74,30.23"/></clipPath></defs><g id="Capa_1-2"><g><g><path class="cls-13" d="M70.46,29.29c0,.74-.57,1.34-1.28,1.34h-8.93c-.7,0-1.28-.6-1.28-1.34V10.1c0-.74,.57-1.34,1.28-1.34h8.73c.7,0,1.28,.6,1.28,1.34s-.57,1.34-1.28,1.34h-7.45v6.12h6.82c.7,0,1.28,.6,1.28,1.34s-.57,1.34-1.28,1.34h-6.82v7.71h7.66c.7,0,1.28,.6,1.28,1.34Z"/><path class="cls-13" d="M75.05,9.93c0-.74,.57-1.34,1.28-1.34s1.28,.6,1.28,1.34V27.95h7.14c.7,0,1.28,.6,1.28,1.34s-.57,1.34-1.28,1.34h-8.41c-.7,0-1.28-.6-1.28-1.34V9.93Z"/></g><g><path class="cls-15" d="M101.77,29.07c.21,.71-.18,1.45-.86,1.67-.65,.19-1.38-.19-1.56-.9l-1.35-4.81h-5.86l-1.38,4.81c-.18,.71-.89,1.12-1.56,.9s-1.07-.96-.86-1.64l5.52-19.55c.16-.57,.65-.96,1.2-.96s1.07,.38,1.22,.96l5.5,19.52Zm-4.53-6.7l-2.19-7.74-2.16,7.74h4.35Z"/><path class="cls-15" d="M116.47,9.93v15.78c0,1.56-.62,2.93-1.72,3.86-.99,.79-2.29,1.23-3.78,1.23-2.89,0-5-1.64-5.42-4.21-.1-.74,.36-1.42,1.07-1.53,.7-.11,1.35,.38,1.46,1.12,.29,1.8,2.29,1.94,2.89,1.94,.7,0,2.94-.16,2.94-2.41v-2.11c-.83,.46-1.85,.68-2.94,.68-1.46,0-2.76-.41-3.75-1.23-1.12-.93-1.72-2.27-1.72-3.83V9.93c0-.74,.57-1.34,1.28-1.34s1.28,.6,1.28,1.34v9.3c0,2.21,2.24,2.38,2.92,2.38s2.94-.16,2.94-2.38V9.93c0-.74,.57-1.34,1.28-1.34s1.28,.6,1.28,1.34Z"/><path class="cls-15" d="M132.18,9.93c0-.74,.57-1.34,1.28-1.34s1.28,.6,1.28,1.34v15.15c0,1.75-.68,3.28-1.93,4.32-1.09,.9-2.58,1.39-4.27,1.39s-3.15-.49-4.27-1.39c-1.25-1.04-1.93-2.57-1.93-4.32V9.93c0-.74,.57-1.34,1.28-1.34s1.28,.6,1.28,1.34v15.15c0,2.24,1.88,3.04,3.65,3.04s3.65-.79,3.65-3.04V9.93Z"/><path class="cls-15" d="M147.32,8.76c1.69,0,3.18,.49,4.27,1.39,1.25,1.04,1.93,2.57,1.93,4.32v10.42c0,1.75-.68,3.28-1.93,4.32-1.09,.93-2.6,1.42-4.27,1.42h-5.42c-.7,0-1.28-.6-1.28-1.34V10.1c0-.74,.57-1.34,1.28-1.34h5.42Zm-4.14,2.68V27.95h4.14c1.77,0,3.65-.79,3.65-3.06V14.47c0-2.24-1.88-3.04-3.65-3.04h-4.14Z"/><path class="cls-15" d="M171.1,29.07c.21,.71-.18,1.45-.86,1.67-.65,.19-1.38-.19-1.56-.9l-1.35-4.81h-5.86l-1.38,4.81c-.18,.71-.89,1.12-1.56,.9-.68-.22-1.07-.96-.86-1.64l5.52-19.55c.16-.57,.65-.96,1.2-.96s1.07,.38,1.22,.96l5.5,19.52Zm-4.53-6.7l-2.19-7.74-2.16,7.74h4.35Z"/><path class="cls-15" d="M177.77,9.3l7.53,14.68V9.93c0-.74,.57-1.34,1.28-1.34s1.28,.6,1.28,1.34l.08,19.52c0,.6-.39,1.15-.96,1.31-.55,.14-1.15-.14-1.43-.68l-7.61-14.85v14.22c0,.74-.57,1.34-1.28,1.34s-1.28-.6-1.28-1.34V9.93c0-.6,.39-1.15,.96-1.29,.57-.16,1.15,.11,1.43,.66Z"/><path class="cls-15" d="M204.08,8.76c.7,0,1.28,.6,1.28,1.34s-.57,1.34-1.28,1.34h-4.19V29.46c0,.74-.57,1.34-1.28,1.34s-1.28-.6-1.28-1.34V11.44h-4.19c-.7,0-1.28-.6-1.28-1.34s.57-1.34,1.28-1.34h10.94Z"/><path class="cls-15" d="M220.78,29.29c0,.74-.57,1.34-1.28,1.34h-8.93c-.7,0-1.28-.6-1.28-1.34V10.1c0-.74,.57-1.34,1.28-1.34h8.73c.7,0,1.28,.6,1.28,1.34s-.57,1.34-1.28,1.34h-7.45v6.12h6.82c.7,0,1.28,.6,1.28,1.34s-.57,1.34-1.28,1.34h-6.82v7.71h7.66c.7,0,1.28,.6,1.28,1.34Z"/></g><rect class="cls-13" x="69.84" y="35.56" width="138.58" height="1.06"/><g><path class="cls-15" d="M76.26,50.29c-.66,.36-1.48,.55-2.46,.55-1.27,0-2.28-.43-3.04-1.28-.76-.86-1.14-1.98-1.14-3.37,0-1.49,.43-2.7,1.28-3.62,.86-.92,1.94-1.38,3.26-1.38,.84,0,1.54,.13,2.1,.38v1.17c-.64-.37-1.34-.56-2.11-.56-1.02,0-1.85,.36-2.49,1.07s-.95,1.67-.95,2.87,.3,2.04,.89,2.72c.59,.68,1.37,1.01,2.34,1.01,.89,0,1.67-.21,2.32-.63v1.06Z"/><path class="cls-15" d="M85.79,50.68h-1.24l-1.49-2.62c-.14-.24-.27-.45-.4-.62-.13-.17-.26-.31-.39-.42-.13-.11-.28-.19-.43-.24s-.33-.07-.52-.07h-.86v3.97h-1.04v-9.34h2.66c.39,0,.75,.05,1.08,.15s.61,.26,.86,.47,.43,.47,.57,.78c.14,.31,.21,.67,.21,1.09,0,.33-.05,.62-.14,.9-.09,.27-.23,.51-.4,.73s-.38,.39-.62,.54-.51,.27-.82,.35v.03c.15,.07,.28,.15,.39,.24,.11,.09,.21,.19,.31,.32,.1,.12,.2,.26,.29,.41,.1,.15,.21,.33,.33,.54l1.67,2.81Zm-5.34-8.35v3.39h1.42c.26,0,.5-.04,.72-.12,.22-.08,.41-.2,.57-.35,.16-.15,.29-.34,.38-.57,.09-.22,.14-.47,.14-.75,0-.5-.15-.89-.46-1.17-.31-.28-.75-.42-1.34-.42h-1.43Z"/><path class="cls-15" d="M93.06,50.68h-4.72v-9.34h4.52v.99h-3.48v3.11h3.22v.98h-3.22v3.27h3.67v.99Z"/><path class="cls-15" d="M103.06,50.68h-1.15l-.94-2.62h-3.77l-.89,2.62h-1.16l3.41-9.34h1.08l3.43,9.34Zm-2.44-3.6l-1.4-3.98c-.05-.13-.09-.34-.14-.62h-.02c-.04,.26-.09,.47-.14,.62l-1.38,3.98h3.08Z"/><path class="cls-15" d="M112.88,50.68h-1.28l-4.58-7.45c-.12-.19-.21-.38-.29-.59h-.04c.03,.2,.05,.63,.05,1.28v6.75h-1.04v-9.34h1.35l4.46,7.33c.19,.3,.31,.51,.36,.63h.02c-.04-.27-.06-.73-.06-1.37v-6.58h1.04v9.34Z"/><path class="cls-15" d="M116.55,50.68v-9.34h2.46c3.14,0,4.7,1.52,4.7,4.55,0,1.44-.44,2.6-1.31,3.48s-2.04,1.31-3.5,1.31h-2.36Zm1.04-8.35v7.36h1.33c1.17,0,2.08-.33,2.72-.98s.97-1.58,.97-2.79c0-2.39-1.21-3.59-3.64-3.59h-1.39Z"/><path class="cls-15" d="M130.39,50.83c-1.26,0-2.27-.44-3.03-1.31-.76-.87-1.14-2.01-1.14-3.41,0-1.5,.39-2.7,1.16-3.6s1.83-1.34,3.16-1.34c1.23,0,2.22,.43,2.97,1.3,.75,.87,1.13,2,1.13,3.41,0,1.52-.38,2.73-1.15,3.62-.77,.89-1.8,1.33-3.09,1.33Zm.07-8.66c-.94,0-1.69,.35-2.28,1.06-.58,.71-.88,1.64-.88,2.79s.28,2.08,.85,2.78c.57,.7,1.31,1.05,2.23,1.05,.98,0,1.75-.33,2.31-1,.56-.67,.84-1.6,.84-2.81s-.27-2.19-.82-2.86c-.55-.67-1.3-1.01-2.26-1.01Z"/></g><g><path class="cls-13" d="M149.29,50.04c-.89,.53-1.89,.79-2.98,.79-1.27,0-2.3-.43-3.08-1.29s-1.18-2-1.18-3.41,.44-2.63,1.31-3.56c.87-.93,1.98-1.39,3.31-1.39,.97,0,1.78,.17,2.44,.5v1.21c-.72-.48-1.57-.72-2.56-.72s-1.81,.36-2.45,1.08c-.64,.72-.96,1.65-.96,2.8s.3,2.11,.89,2.78c.59,.68,1.39,1.01,2.41,1.01,.7,0,1.3-.15,1.81-.44v-2.62h-1.95v-.99h2.99v4.23Z"/><path class="cls-13" d="M153.73,50.68h-1.04v-9.34h1.04v9.34Z"/><path class="cls-13" d="M164.06,50.04c-.89,.53-1.89,.79-2.98,.79-1.27,0-2.3-.43-3.08-1.29s-1.18-2-1.18-3.41,.44-2.63,1.31-3.56c.87-.93,1.98-1.39,3.31-1.39,.97,0,1.78,.17,2.44,.5v1.21c-.72-.48-1.57-.72-2.56-.72s-1.81,.36-2.45,1.08c-.64,.72-.96,1.65-.96,2.8s.3,2.11,.89,2.78c.59,.68,1.39,1.01,2.41,1.01,.7,0,1.3-.15,1.81-.44v-2.62h-1.95v-.99h2.99v4.23Z"/><path class="cls-13" d="M174.35,50.68h-1.15l-.94-2.62h-3.77l-.89,2.62h-1.16l3.41-9.34h1.08l3.43,9.34Zm-2.44-3.6l-1.4-3.98c-.05-.13-.09-.34-.14-.62h-.02c-.04,.26-.09,.47-.14,.62l-1.38,3.98h3.08Z"/><path class="cls-13" d="M184.17,50.68h-1.28l-4.58-7.45c-.12-.19-.21-.38-.29-.59h-.04c.03,.2,.05,.63,.05,1.28v6.75h-1.04v-9.34h1.35l4.46,7.33c.19,.3,.31,.51,.36,.63h.02c-.04-.27-.06-.73-.06-1.37v-6.58h1.04v9.34Z"/><path class="cls-13" d="M193.1,42.33h-2.57v8.35h-1.04v-8.35h-2.56v-.99h6.18v.99Z"/><path class="cls-13" d="M200.56,50.68h-4.72v-9.34h4.52v.99h-3.48v3.11h3.21v.98h-3.21v3.27h3.67v.99Z"/><path class="cls-13" d="M203.21,50.3v-1.29c.14,.13,.31,.25,.51,.35,.2,.1,.4,.19,.62,.26,.22,.07,.44,.13,.65,.17,.22,.04,.42,.06,.61,.06,.64,0,1.12-.12,1.44-.37,.32-.25,.48-.61,.48-1.08,0-.25-.05-.47-.16-.66-.11-.19-.25-.36-.44-.51-.19-.15-.41-.3-.66-.44-.25-.14-.53-.29-.82-.45-.31-.17-.6-.33-.87-.5-.27-.17-.5-.36-.7-.56-.2-.2-.35-.44-.47-.69-.11-.26-.17-.56-.17-.91,0-.43,.09-.8,.27-1.11s.41-.57,.7-.78c.29-.2,.62-.36,.99-.46,.37-.1,.75-.15,1.13-.15,.88,0,1.52,.11,1.92,.33v1.23c-.53-.38-1.2-.57-2.02-.57-.23,0-.46,.02-.68,.07-.23,.05-.43,.13-.61,.24-.18,.11-.32,.26-.43,.44-.11,.18-.17,.4-.17,.65,0,.24,.04,.45,.13,.62,.08,.17,.21,.33,.38,.48,.17,.14,.37,.28,.61,.42,.24,.13,.51,.28,.82,.44,.32,.17,.62,.34,.91,.52,.29,.18,.54,.38,.75,.61,.21,.22,.39,.47,.51,.74,.13,.27,.19,.58,.19,.92,0,.46-.09,.85-.26,1.17-.17,.32-.4,.58-.7,.78-.29,.2-.63,.34-1.01,.43s-.78,.13-1.2,.13c-.14,0-.31-.01-.52-.04s-.42-.06-.63-.1c-.22-.05-.42-.1-.61-.17-.19-.07-.35-.14-.46-.23Z"/></g><g><path class="cls-6" d="M149.3,45.88h-2.99v.99h1.95v2.62c-.51,.29-1.11,.44-1.81,.44-1.01,0-1.82-.34-2.41-1.01-.59-.68-.89-1.6-.89-2.78s.32-2.08,.96-2.8c.64-.72,1.45-1.08,2.45-1.08s1.84,.24,2.56,.72v-1.21c-.66-.33-1.47-.5-2.44-.5-1.34,0-2.44,.46-3.31,1.39-.87,.93-1.31,2.11-1.31,3.56s.39,2.55,1.18,3.41c.78,.86,1.81,1.29,3.08,1.29,1.09,0,2.08-.27,2.98-.8v-4.23Z"/><rect class="cls-6" x="152.72" y="41.41" width="1.04" height="9.34"/><path class="cls-6" d="M164.1,45.88h-2.99v.99h1.95v2.62c-.51,.29-1.11,.44-1.81,.44-1.01,0-1.82-.34-2.41-1.01-.59-.68-.89-1.6-.89-2.78s.32-2.08,.96-2.8c.64-.72,1.45-1.08,2.45-1.08s1.84,.24,2.56,.72v-1.21c-.66-.33-1.47-.5-2.44-.5-1.34,0-2.44,.46-3.31,1.39-.87,.93-1.31,2.11-1.31,3.56s.39,2.55,1.18,3.41c.78,.86,1.81,1.29,3.08,1.29,1.09,0,2.08-.27,2.98-.8v-4.23Z"/><path class="cls-6" d="M168.88,47.15l1.38-3.98c.05-.15,.1-.36,.14-.63h.03c.05,.29,.09,.5,.14,.63l1.4,3.98h-3.08Zm2.1-5.74h-1.08l-3.41,9.34h1.16l.89-2.62h3.77l.94,2.62h1.15l-3.43-9.34Z"/><path class="cls-6" d="M184.24,41.41h-1.04v6.58c0,.65,.02,1.11,.06,1.37h-.03c-.05-.11-.17-.32-.36-.63l-4.46-7.33h-1.35v9.34h1.04v-6.75c0-.66-.02-1.08-.05-1.28h.04c.08,.2,.17,.4,.29,.59l4.58,7.45h1.28v-9.34Z"/><polygon class="cls-6" points="193.18 41.41 187.01 41.41 187.01 42.4 189.57 42.4 189.57 50.75 190.61 50.75 190.61 42.4 193.18 42.4 193.18 41.41"/><polygon class="cls-6" points="200.65 49.76 196.97 49.76 196.97 46.49 200.19 46.49 200.19 45.51 196.97 45.51 196.97 42.4 200.45 42.4 200.45 41.41 195.93 41.41 195.93 50.75 200.65 50.75 200.65 49.76"/><path class="cls-6" d="M203.75,50.6c.19,.07,.4,.12,.61,.17,.21,.05,.43,.08,.63,.1,.21,.02,.38,.04,.52,.04,.42,0,.82-.05,1.2-.13,.38-.09,.72-.23,1.01-.43,.29-.2,.52-.46,.7-.78,.17-.32,.26-.71,.26-1.17,0-.35-.06-.66-.19-.93-.12-.27-.3-.51-.51-.74-.22-.22-.47-.42-.75-.61-.29-.18-.59-.36-.91-.52-.31-.16-.58-.31-.82-.44-.24-.13-.44-.27-.61-.42-.17-.14-.29-.3-.38-.48-.08-.17-.13-.38-.13-.62,0-.26,.06-.48,.17-.65,.11-.18,.26-.32,.44-.44,.18-.11,.38-.19,.61-.24,.23-.05,.46-.08,.68-.08,.82,0,1.5,.19,2.02,.57v-1.23c-.4-.22-1.04-.33-1.92-.33-.38,0-.76,.05-1.13,.15-.37,.1-.7,.25-.99,.46-.29,.2-.52,.46-.7,.78-.18,.31-.27,.69-.27,1.11,0,.35,.06,.65,.17,.91,.11,.26,.27,.49,.47,.69,.2,.2,.43,.39,.7,.56,.27,.17,.56,.34,.87,.5,.29,.16,.57,.3,.82,.45,.25,.14,.48,.29,.66,.44,.19,.15,.33,.32,.44,.51,.11,.19,.16,.41,.16,.66,0,.47-.16,.83-.48,1.08-.32,.25-.79,.37-1.44,.37-.19,0-.39-.02-.61-.06-.22-.04-.44-.09-.65-.17-.22-.07-.42-.16-.62-.26-.2-.1-.36-.22-.51-.35v1.29c.12,.08,.27,.16,.46,.23Z"/></g></g><g><path class="cls-13" d="M41.49,22.68c1.07,2.32,1.68,4.91,1.68,7.63,0,10.07-8.19,18.26-18.26,18.26S6.65,40.37,6.65,30.31,14.84,12.05,24.91,12.05c2.36,0,4.62,.46,6.7,1.28,.71-.9,2.71-3.49,4.2-5.42-3.29-1.61-6.99-2.51-10.9-2.51C11.17,5.4,0,16.57,0,30.31s11.17,24.91,24.91,24.91,24.91-11.18,24.91-24.91c0-4.82-1.37-9.31-3.75-13.13l-4.58,5.5Z"/><g class="cls-10"><path class="cls-8" d="M47.13,33.78c0,8.17-6.62,14.78-14.78,14.78s-14.78-6.62-14.78-14.78,6.62-14.78,14.78-14.78"/><path class="cls-4" d="M40.71,23.76l-.78-.83c-.75,.32-1.57,.56-2.46,.73-.28,.26-.63,.49-1.05,.63-.42,.63-1.13,1.02-1.9,1.04-1.13,.94-1.98,1.62-2.54,2.01-.4,.58-1.21,1.68-2.27,2.64-.71,.96-1.41,1.58-2.38,1.58-.25,0-.51-.05-.74-.14-.28,.14-.6,.22-.97,.22-.83,0-1.78-.51-2.13-1.65-.2-.55-.67-2.2,.18-3.65,.2-.34,.36-.57,.48-.72v-.06c.08-.38,.16-.86,.41-1.34,.46-.87,1.33-1.39,2.32-1.39,.03,0,.06,0,.09,0,.12-.21,.26-.44,.42-.69l-.1-.05c-1.17-.57-1.65-1.98-1.08-3.15l2-4.08c.39-.8,1.22-1.32,2.11-1.32,.36,0,.71,.08,1.03,.24,.26-.3,4.6-5.93,5.86-7.57-2.08-1.03-4.41-1.62-6.89-1.62-8.54,0-15.46,6.92-15.46,15.47s6.92,15.46,15.46,15.46,15.46-6.92,15.46-15.46c0-.75-.06-1.49-.16-2.22l-4.93,5.91Z"/><path class="cls-9" d="M38.71,41.15c0,8.54-6.92,15.46-15.46,15.46s-15.46-6.92-15.46-15.46,6.92-15.46,15.46-15.46,15.46,6.92,15.46,15.46"/><path class="cls-1" d="M48.2,12.59s-.01,.05-.02,.08v.06l-.03,.06c-.14,.44-.5,1.53-.92,2.15l-.1,.14-.12,.13-.2,.21,.3,.31-6.52,7.91-.66-.7c-.75,.32-1.57,.56-2.46,.73-.28,.26-.63,.49-1.05,.63-.42,.63-1.13,1.02-1.9,1.04-1.13,.95-1.98,1.62-2.54,2.01-.4,.58-1.21,1.68-2.27,2.64-.71,.96-1.41,1.58-2.38,1.58-.25,0-.51-.05-.74-.14-.28,.14-.6,.22-.97,.22-.83,0-1.78-.51-2.12-1.65-.2-.55-.67-2.2,.18-3.65,.2-.34,.37-.57,.48-.72v-.06c.08-.38,.16-.86,.41-1.34,.46-.87,1.33-1.39,2.32-1.39,.03,0,.06,0,.09,0,.12-.21,.26-.44,.42-.69l-.1-.05c-1.17-.57-1.65-1.98-1.08-3.15l2-4.08c.39-.8,1.22-1.32,2.11-1.32,.36,0,.71,.08,1.03,.24,.2-.23,2.9-3.73,4.67-6.02-.96-.11-1.94-.17-2.93-.17-13.96,0-25.28,11.32-25.28,25.28s11.32,25.28,25.28,25.28,25.28-11.32,25.28-25.28c0-8.3-4-15.67-10.18-20.28"/><path class="cls-12" d="M47.13,33.78c0,8.17-6.62,14.78-14.78,14.78s-14.78-6.62-14.78-14.78,6.43-15.14,14.56-14.42c8.86,.78,15,6.26,15,14.42"/></g><g class="cls-5"><g class="cls-3"><path class="cls-14" d="M43.76,37.27c0,6.32-5.12,11.45-11.45,11.45s-11.45-5.12-11.45-11.45,5.12-11.45,11.45-11.45,11.45,5.12,11.45,11.45"/></g></g><g class="cls-11"><path class="cls-15" d="M25.87,42.26c.31-.48,.49-1.05,.49-1.67,0-1.47-1.03-2.69-2.4-3-.05-.04-.1-.08-.15-.13,.16-.28,.25-.61,.25-.95,0-1.01-.77-1.84-1.76-1.94,1.2-1.98,2.48-3.77,2.48-3.77-1.08-.15-.87-2.13-.87-2.13-1.1,.66-4.63,2.39-6.43,3.26-.38-.78-1.18-1.31-2.11-1.31-.73,0-1.38,.33-1.81,.86-.49-.75-1.34-1.25-2.3-1.25-1.3,0-2.39,.91-2.67,2.12-.02,.03-.05,.06-.07,.1,0,0-3.69,10.48,4.03,15.08,0,0,8.54,0,16.87-.75,0,0,.58-3.77-3.55-4.53"/></g><path class="cls-2" d="M49.33,0l-.61,.21c-.29,.12-.38,.46-.38,.46l.03,.73s-.58,.94-1.29,1.44c-.71,.5-1.55,2.37-1.55,2.37,0,0-.91,.88-1.1,.92-.18,.04-.46,.29-.46,.29-.33,.06-.08-1.03-.08-1.03,.42-.46,.23-.7,.23-.7l-.67-.37-.02-.51c-.29,.09-.8,0-.8,0-.49-.34-.71-.37-.71-.37v-.37c-.19,.08-.58,.5-.58,.5v-.29c-.58,.43-.95,1.25-.95,1.25l-.16-.21-.12,.52c-.05,.59,.51,1.75,.51,1.75l.3,.13-.36,.05c-1.29-.2-2.22,1.19-2.22,1.19-.82,.44-1.89,1.98-1.89,1.98-.31,.34-.37,.75-.37,.75-.35,.24-.64,.53-.89,.83h0c-.74,.9-1.05,1.92-1.14,2.27h0l-.02,.07v.06s-.03,.03-.05,.08v.02s-.03,.05-.04,.07v.03s-.04,.06-.05,.1l-.02,.04c-.07,.19-.17,.41-.25,.61l-.47,.45v.07l-.29-.1c-.12-.05-.26,.01-.32,.13l-.19,.43-1.76-.77c-.18-.08-.38,0-.46,.18l-1.79,4.08c-.08,.18,0,.38,.18,.46l2.38,1.05c-1.22,1.09-1.75,2.59-2.19,3.2-.62,.87-.65,.21-1.27,.24-.62,.03-.63,.65-.72,1.26-.08,.61-.2,.47-.64,1.29-.44,.82,.08,1.97,.08,1.97,.23,.81,.93-.48,1.07-.7,.14-.22,.43-.13,.43-.13,0,0,.18,.83,.37,.94,.19,.1,.87-.95,.87-.95,1.27-1.19,2.15-2.76,2.15-2.76,.62-.39,2.62-2.23,3.28-2.84l.3,.13c.18,.08,.38,0,.46-.18l.24-.55c.1-.06,.17-.11,.17-.11,.81,0,1.04-.59,1.04-.59l.32-.16c1.6-.3,2.7-.83,3.45-1.37l.04-.03c.06-.05,.12-.09,.18-.14,.01-.01,.03-.02,.04-.03,.06-.05,.12-.1,.18-.15h0c.06-.06,.12-.12,.18-.17l.02-.02s.09-.09,.14-.14l.03-.03s.08-.09,.12-.14h0c.04-.06,.08-.11,.12-.16h0s.07-.09,.09-.13l.02-.02s.05-.07,.07-.11h0c.05-.09,.09-.16,.13-.23v-.02s.03-.05,.04-.07h0c.02-.06,.04-.1,.05-.13h0v-.03h.01v-.02s.16-.14,.38-.37h0c.3-.32,.72-.8,1.02-1.3,.51-.86,1.36-2.54,1.36-2.54l.7-.8c.27-.45,.59-1.63,.59-1.63,.06-.3,.24-1.25,.24-1.25,.03-1.03-.3-1.85-.3-1.85l-.02-.58c.77-.8,1-1.4,1-1.4l.25-.27c1.26-1.26,1.35-2.69,1.35-2.69,.24-.45,.41-.68,.41-.68,.39-.2,.67-.65,.67-.65l.21-.3c.27-.49-.35-1.41-.35-1.41m-11.67,11.32c1.87-.81,2.2-1.55,2.2-1.55l-.06,.41c-.06,.4,.31,1.34,.5,1.51,.19,.17,.46,.6,.46,.6-.1,.26-.67,1.42-.67,1.42-.4,.06-.75,.18-1.05,.34h0s-.04,.03-.07,.04c-.07,.04-.14,.08-.2,.12-.03,.02-.06,.05-.1,.07-.05,.04-.1,.07-.14,.11-.03,.03-.06,.05-.09,.08-.04,.04-.09,.08-.13,.12-.03,.03-.05,.05-.08,.08-.05,.05-.09,.1-.13,.15-.01,.02-.03,.03-.04,.05-.05,.07-.1,.13-.15,.2-.02,.03-.04,.05-.05,.08-.03,.04-.06,.08-.08,.12-.02,.03-.03,.06-.05,.08-.02,.04-.04,.08-.07,.11-.01,.03-.03,.05-.04,.07-.02,.04-.04,.08-.06,.12,0,.02-.02,.04-.03,.06-.02,.05-.05,.1-.07,.15,0,.02-.01,.03-.02,.05-.01,.03-.02,.06-.04,.09,0,.02-.01,.03-.02,.05,0,.02-.02,.04-.02,.06v.03s-.02,.03-.02,.04v.04c-.09,.03-.16,.08-.24,.12-.02,.01-.04,.02-.06,.04h-.02c-.41,.25-.83,.61-1.23,.99l-.99-.44,.19-.4c.05-.11,.02-.23-.07-.3,.14-.28,.25-.67,.17-1.05-.01-.05-.02-.1-.04-.15,0-.02,0-.05,0-.07,0-.32,.28-.58,.41-.69h0s.04-.03,.05-.04h.02c.1-.12,.2-.21,.29-.31,.03-.03,.05-.06,.08-.08,.07-.07,.13-.14,.19-.21l.07-.08c.08-.09,.15-.17,.22-.25l.07-.09c.04-.05,.09-.1,.13-.15,.03-.04,.06-.07,.09-.11,.03-.04,.06-.07,.08-.11,.08-.1,.15-.19,.21-.28h0c.55-.78,.67-1.21,.67-1.21m-3.44,5.1l.21,.12-.08,.17-.37-.16,.24-.12Zm-1.32-.61l.13,.05-.05,.24-.18-.08,.09-.21Z"/></g></g></svg>